<svg width="41" height="41" viewBox="0 0 41 41" fill="none" xmlns="http://www.w3.org/2000/svg">
<path fill-rule="evenodd" clip-rule="evenodd" d="M41 2.73333V5.46667C40.2597 5.46667 39.6191 5.73715 39.0781 6.27813C38.5372 6.8191 38.2667 7.46684 38.2667 8.22136C38.2667 8.97587 38.53 9.61649 39.0568 10.1432C39.5835 10.67 40.2313 10.9333 41 10.9333V13.6667C40.2313 13.6667 39.5835 13.9372 39.0568 14.4781C38.53 15.0191 38.2667 15.6668 38.2667 16.4214C38.2667 17.1759 38.53 17.8165 39.0568 18.3432C39.5835 18.87 40.2313 19.1333 41 19.1333V21.8667C40.2597 21.8667 39.6191 22.1372 39.0781 22.6781C38.5372 23.2191 38.2667 23.8668 38.2667 24.6214C38.2667 25.3759 38.53 26.0165 39.0568 26.5432C39.5835 27.07 40.2313 27.3333 41 27.3333V30.0667C40.2597 30.0667 39.6191 30.3372 39.0781 30.8781C38.5372 31.4191 38.2667 32.0668 38.2667 32.8214C38.2667 33.5759 38.5372 34.2165 39.0781 34.7432C39.6191 35.27 40.2597 35.5333 41 35.5333V38.2667C40.2313 38.2667 39.5835 38.5372 39.0568 39.0781C38.53 39.6191 38.2667 40.2597 38.2667 41H35.5333C35.5333 40.2597 35.27 39.6191 34.7432 39.0781C34.2165 38.5372 33.5759 38.2667 32.8214 38.2667C32.0668 38.2667 31.4191 38.5372 30.8781 39.0781C30.3372 39.6191 30.0667 40.2597 30.0667 41H27.3333C27.3333 40.2597 27.07 39.6191 26.5432 39.0781C26.0165 38.5372 25.3687 38.2667 24.6 38.2667C23.8312 38.2667 23.1835 38.5372 22.6568 39.0781C22.13 39.6191 21.8667 40.2597 21.8667 41H19.1333C19.1333 40.2597 18.87 39.6191 18.3432 39.0781C17.8165 38.5372 17.1688 38.2667 16.4 38.2667C15.6313 38.2667 14.9835 38.5372 14.4568 39.0781C13.93 39.6191 13.6667 40.2597 13.6667 41H10.9333C10.9333 40.2597 10.6628 39.6191 10.1219 39.0781C9.5809 38.5372 8.93316 38.2667 8.17865 38.2667C7.42413 38.2667 6.78351 38.5372 6.25677 39.0781C5.73003 39.6191 5.46667 40.2597 5.46667 41H2.73333C2.73333 40.2597 2.46997 39.6191 1.94323 39.0781C1.41649 38.5372 0.76875 38.2667 0 38.2667V35.5333C0.740278 35.5333 1.3809 35.27 1.92188 34.7432C2.46285 34.2165 2.73333 33.5759 2.73333 32.8214C2.73333 32.0668 2.46285 31.4191 1.92188 30.8781C1.3809 30.3372 0.740278 30.0667 0 30.0667V27.3333C0.76875 27.3333 1.41649 27.07 1.94323 26.5432C2.46997 26.0165 2.73333 25.3759 2.73333 24.6214C2.73333 23.8668 2.46285 23.2191 1.92188 22.6781C1.3809 22.1372 0.740278 21.8667 0 21.8667V19.1333C0.76875 19.1333 1.41649 18.87 1.94323 18.3432C2.46997 17.8165 2.73333 17.1759 2.73333 16.4214C2.73333 15.6668 2.46997 15.0191 1.94323 14.4781C1.41649 13.9372 0.76875 13.6667 0 13.6667V10.9333C0.76875 10.9333 1.41649 10.67 1.94323 10.1432C2.46997 9.61649 2.73333 8.97587 2.73333 8.22136C2.73333 7.46684 2.46285 6.8191 1.92188 6.27813C1.3809 5.73715 0.740278 5.46667 0 5.46667V2.73333C0.76875 2.73333 1.41649 2.46997 1.94323 1.94323C2.46997 1.41649 2.73333 0.768749 2.73333 0H5.46667C5.46667 0.768749 5.73003 1.41649 6.25677 1.94323C6.78351 2.46997 7.42413 2.73333 8.17865 2.73333C8.93316 2.73333 9.5809 2.46997 10.1219 1.94323C10.6628 1.41649 10.9333 0.768749 10.9333 0H13.6667C13.6667 0.768749 13.93 1.41649 14.4568 1.94323C14.9835 2.46997 15.6313 2.73333 16.4 2.73333C17.1688 2.73333 17.8165 2.46997 18.3432 1.94323C18.87 1.41649 19.1333 0.768749 19.1333 0H21.8667C21.8667 0.768749 22.13 1.41649 22.6568 1.94323C23.1835 2.46997 23.8312 2.73333 24.6 2.73333C25.3687 2.73333 26.0165 2.46997 26.5432 1.94323C27.07 1.41649 27.3333 0.768749 27.3333 0H30.0667C30.0667 0.768749 30.3372 1.41649 30.8781 1.94323C31.4191 2.46997 32.0668 2.73333 32.8214 2.73333C33.5759 2.73333 34.2165 2.46997 34.7432 1.94323C35.27 1.41649 35.5333 0.768749 35.5333 0H38.2667C38.2667 0.768749 38.53 1.41649 39.0568 1.94323C39.5835 2.46997 40.2313 2.73333 41 2.73333ZM35.1276 35.1276C35.3981 34.8571 35.5333 34.5368 35.5333 34.1667V6.83333C35.5333 6.4632 35.3981 6.14288 35.1276 5.87239C34.8571 5.60191 34.5368 5.46667 34.1667 5.46667H6.83333C6.46319 5.46667 6.14288 5.60191 5.8724 5.87239C5.60191 6.14288 5.46667 6.4632 5.46667 6.83333V34.1667C5.46667 34.5368 5.60191 34.8571 5.8724 35.1276C6.14288 35.3981 6.46319 35.5333 6.83333 35.5333H34.1667C34.5368 35.5333 34.8571 35.3981 35.1276 35.1276ZM9.31042 8.2H31.6896C32.0028 8.2 32.2661 8.30677 32.4797 8.52031C32.6932 8.73385 32.8 8.99722 32.8 9.31042V31.6896C32.8 32.0028 32.6932 32.2661 32.4797 32.4797C32.2661 32.6932 32.0028 32.8 31.6896 32.8H9.31042C8.99722 32.8 8.73385 32.6932 8.52031 32.4797C8.30677 32.2661 8.2 32.0028 8.2 31.6896V9.31042C8.2 8.99722 8.30677 8.73385 8.52031 8.52031C8.73385 8.30677 8.99722 8.2 9.31042 8.2ZM21.0001 16.8212C23.7738 13.97 30.7088 18.9594 21.0001 25.375C11.2913 18.96 18.2263 13.97 21.0001 16.8212Z" fill="black"/>
</svg>
